inDegrees=no
num_controls=7
num_derivatives=13
num_iterations=87
num_multipliers=7
num_parameters=0
num_slacks=7
num_states=26
objective=0.436991
objective_accelerations=0.066933
objective_balance=0.004151
objective_effort=0.027627
objective_height=0.332774
objective_ligament=0.005506
solver_duration=1142.734030
status=Solve_Succeeded
success=true
DataType=double
version=3
OpenSimVersion=4.5
endheader
time	/jointset/ground_pelvis/pelvis_tilt/value	/jointset/ground_pelvis/pelvis_tx/value	/jointset/ground_pelvis/pelvis_ty/value	/jointset/hip_l/hip_flexion_l/value	/jointset/hip_l/hip_adduction_l/value	/jointset/hip_l/hip_rotation_l/value	/jointset/back/lumbar_extension/value	/jointset/patellofemoral_l/patellar_flexion_l/value	/jointset/knee_l/knee_flexion_l/value	/jointset/knee_l/knee_adduction_l/value	/jointset/knee_l/knee_rotation_l/value	/jointset/ankle_l/ankle_angle_l/value	/jointset/subtalar_l/subtalar_angle_l/value	/jointset/ground_pelvis/pelvis_tilt/speed	/jointset/ground_pelvis/pelvis_tx/speed	/jointset/ground_pelvis/pelvis_ty/speed	/jointset/hip_l/hip_flexion_l/speed	/jointset/hip_l/hip_adduction_l/speed	/jointset/hip_l/hip_rotation_l/speed	/jointset/back/lumbar_extension/speed	/jointset/patellofemoral_l/patellar_flexion_l/speed	/jointset/knee_l/knee_flexion_l/speed	/jointset/knee_l/knee_adduction_l/speed	/jointset/knee_l/knee_rotation_l/speed	/jointset/ankle_l/ankle_angle_l/speed	/jointset/subtalar_l/subtalar_angle_l/speed	/forceset/tau_hip_flexion_l	/forceset/tau_hip_adduction_l	/forceset/tau_hip_rotation_l	/forceset/tau_knee_flexion_l	/forceset/tau_ankle_angle_l	/forceset/tau_subtalar_angle_l	/forceset/tau_lumbar_extension	lambda_cid13_p0	lambda_cid13_p1	lambda_cid13_p2	lambda_cid13_p3	lambda_cid13_p4	lambda_cid13_p5	lambda_cid14_p0	/jointset/ground_pelvis/pelvis_tilt/accel	/jointset/ground_pelvis/pelvis_tx/accel	/jointset/ground_pelvis/pelvis_ty/accel	/jointset/hip_l/hip_flexion_l/accel	/jointset/hip_l/hip_adduction_l/accel	/jointset/hip_l/hip_rotation_l/accel	/jointset/back/lumbar_extension/accel	/jointset/patellofemoral_l/patellar_flexion_l/accel	/jointset/knee_l/knee_flexion_l/accel	/jointset/knee_l/knee_adduction_l/accel	/jointset/knee_l/knee_rotation_l/accel	/jointset/ankle_l/ankle_angle_l/accel	/jointset/subtalar_l/subtalar_angle_l/accel	gamma_cid13_p0	gamma_cid13_p1	gamma_cid13_p2	gamma_cid13_p3	gamma_cid13_p4	gamma_cid13_p5	gamma_cid14_p0
0	-0.03895236464162714	0.06866036157359055	0.8959277353537803	0.1955287580552426	-0.3222474533805741	-0.4785800902212134	-0.1379045077516729	0.07015288079084844	0.07015288079084844	-0.1745327692114057	-0.1132869316904156	-0.06701059314715049	0.003506155731105605	0	0	0	0	0	0	0	0	0	0	0	0	0	0.1158803158292366	-0.0869796278481854	-0.02967091245245928	-0.2350124954190967	0.1910209584951746	-0.02948730036259048	-0.06165232532077485	25.21260555931282	5.022613057837159	2.711751230737818	6.832578111422011	-510.6894982424467	-69.265983484231	-39.79510845463255	-5.48319098911468	-2.325791489120897	-1.152367234694857	15.10106664786512	-2.315396118952576	3.824651225041675	-3.115218589263584	11.69558889862664	11.69558889862665	0.9432938209364263	-0.9955536002554569	2.375297650328261	-1.250860790314232	-6.840473469705719e-08	9.814402757954859e-08	2.502334969261589e-07	3.129996813356774e-08	-1.309763717772275e-07	-1.339187092969961e-07	-2.458642042684792e-08
0.01	-0.0392135374108505	0.06854440653351396	0.8958717475202864	0.1962610574371909	-0.3223610594494625	-0.4783882744208568	-0.1380676530556072	0.0707220071480031	0.07072200714800311	-0.174488440890046	-0.1133303816734171	-0.06689797447190637	0.003442589570149941	-0.05191909739128154	-0.02320644491323667	-0.01116668088455286	0.1459490997362412	-0.02256247098565483	0.03819382865706723	-0.03235116800454212	0.1133968958116832	0.1133968958116834	0.008966165576451038	-0.008691278683621712	0.02232872914110866	-0.01264713167883019	0.1063463625005894	-0.08777053453786321	-0.02728171579186503	-0.2188762839853105	0.1648030915962363	-0.01890962892196336	-0.0542745581151319	17.15570593619954	1.794926384925189	3.277171950588864	11.45533515572734	-511.3346589514472	-76.6406435098084	-39.80665920244033	-4.998963698399918	-2.320380267119136	-1.094211838475662	14.26519987176504	-2.202903670838994	3.79131387709088	-3.253381988702028	11.09748849683574	11.09748849683576	0.8884000411877441	-0.8060737309148485	2.132408920226864	-1.261768342139119	-8.179476177664901e-08	2.193603618475787e-07	2.634706902888416e-07	6.818164641097497e-08	-3.198392802211894e-07	-1.153163079372274e-07	-1.045884977284168e-08
0.02	-0.03998444007083966	0.06819592518936619	0.8957050142133191	0.1984375214635539	-0.322695536444701	-0.477819607295719	-0.1385459732561174	0.07241225217815395	0.07241225217815393	-0.174351426489884	-0.1134607761889545	-0.06656791883040622	0.003254526295311634	-0.1019459781531643	-0.04650526081423672	-0.02214909469471196	0.2888329288829392	-0.04417418526999198	0.07537026495619983	-0.06303497931518431	0.2242237345992299	0.2242237345992302	0.01853721576043415	-0.01738890650721625	0.04348739325120513	-0.02489942277652863	0.09681240917194214	-0.088561441227541	-0.02489251913127131	-0.2027400725515242	0.138585224697298	-0.008331957481336224	-0.04689679090948901	9.173950921221795	-1.445116780255352	3.84364888740685	15.92035656387087	-510.8616758753457	-83.82533967104	-39.84073138778494	-5.10474766323492	-2.344265686673573	-1.115513819816104	14.48801252995649	-2.125244778689042	3.621172753454752	-2.7817472504836	11.18157749379936	11.18157749379936	1.064270742442842	-0.9968234282500232	2.141284644125818	-1.171892674087881	-9.518478885624084e-08	3.405766961156087e-07	2.767078836515243e-07	1.050633246883822e-07	-5.087021886651512e-07	-9.671390657745879e-08	3.668720881164555e-09
0.03	-0.04124829454515221	0.06761612837854906	0.8954289817892397	0.2020263543186462	-0.3232420347956363	-0.4768844003129847	-0.1393214052498385	0.07519703913963446	0.07519703913963445	-0.1741179069668395	-0.1136776399943157	-0.06603033285444965	0.002946164537426765	-0.1506291924447295	-0.06925218795740107	-0.03305317154866853	0.4281498739445366	-0.06503685617086576	0.1114892657128966	-0.09173346577207821	0.3321367149058517	0.3321367149058516	0.02799893340775932	-0.02590169836677707	0.06398404494156958	-0.03670280735348218	0.09446940474666081	-0.08298472445367067	-0.02500739772320091	-0.2044728361127703	0.1455459302940763	-0.01312505267298797	-0.04449313295061289	11.30054151969718	0.1831507154576947	3.676606355549559	13.67757804185334	-510.611275959831	-79.09595865640233	-39.89594378705218	-4.720766156224344	-2.209598057688362	-1.077324335835347	13.5359453293721	-2.053555771496914	3.579955445673531	-2.866206294747861	10.50661608961509	10.50661608961506	0.8620464281645053	-0.7661601562034006	1.996996938453121	-1.17412832799566	-1.422559150724714e-07	2.978263953187549e-07	3.968142092589281e-07	1.349678734952921e-07	-7.581285839906737e-07	-1.855367510354217e-07	-1.353915104320418e-08
